  0
SECTION
  2
HEADER
  9
$ACADVER
  1
AC1027
  9
$ACADMAINTVER
 70
105
  9
$DWGCODEPAGE
  3
ANSI_1252
  9
$LASTSAVEDBY
  1
ezdxf
  9
$REQUIREDVERSIONS
160
0
  9
$INSBASE
 10
0.0
 20
0.0
 30
0.0
  9
$EXTMIN
 10
1e+20
 20
1e+20
 30
1e+20
  9
$EXTMAX
 10
-1e+20
 20
-1e+20
 30
-1e+20
  9
$LIMMIN
 10
0.0
 20
0.0
  9
$LIMMAX
 10
420.0
 20
297.0
  9
$ORTHOMODE
 70
0
  9
$REGENMODE
 70
1
  9
$FILLMODE
 70
1
  9
$QTEXTMODE
 70
0
  9
$MIRRTEXT
 70
1
  9
$LTSCALE
 40
1.0
  9
$ATTMODE
 70
1
  9
$TEXTSIZE
 40
2.5
  9
$TRACEWID
 40
1.0
  9
$TEXTSTYLE
  7
Standard
  9
$CLAYER
  8
0
  9
$CELTYPE
  6
ByLayer
  9
$CECOLOR
 62
256
  9
$CELTSCALE
 40
1.0
  9
$DISPSILH
 70
0
  9
$DIMSCALE
 40
1.0
  9
$DIMASZ
 40
2.5
  9
$DIMEXO
 40
0.625
  9
$DIMDLI
 40
3.75
  9
$DIMRND
 40
0.0
  9
$DIMDLE
 40
0.0
  9
$DIMEXE
 40
1.25
  9
$DIMTP
 40
0.0
  9
$DIMTM
 40
0.0
  9
$DIMTXT
 40
2.5
  9
$DIMCEN
 40
2.5
  9
$DIMTSZ
 40
0.0
  9
$DIMTOL
 70
0
  9
$DIMLIM
 70
0
  9
$DIMTIH
 70
0
  9
$DIMTOH
 70
0
  9
$DIMSE1
 70
0
  9
$DIMSE2
 70
0
  9
$DIMTAD
 70
1
  9
$DIMZIN
 70
8
  9
$DIMBLK
  1

  9
$DIMASO
 70
1
  9
$DIMSHO
 70
1
  9
$DIMPOST
  1

  9
$DIMAPOST
  1

  9
$DIMALT
 70
0
  9
$DIMALTD
 70
3
  9
$DIMALTF
 40
0.03937007874
  9
$DIMLFAC
 40
1.0
  9
$DIMTOFL
 70
1
  9
$DIMTVP
 40
0.0
  9
$DIMTIX
 70
0
  9
$DIMSOXD
 70
0
  9
$DIMSAH
 70
0
  9
$DIMBLK1
  1

  9
$DIMBLK2
  1

  9
$DIMSTYLE
  2
ISO-25
  9
$DIMCLRD
 70
0
  9
$DIMCLRE
 70
0
  9
$DIMCLRT
 70
0
  9
$DIMTFAC
 40
1.0
  9
$DIMGAP
 40
0.625
  9
$DIMJUST
 70
0
  9
$DIMSD1
 70
0
  9
$DIMSD2
 70
0
  9
$DIMTOLJ
 70
0
  9
$DIMTZIN
 70
8
  9
$DIMALTZ
 70
0
  9
$DIMALTTZ
 70
0
  9
$DIMUPT
 70
0
  9
$DIMDEC
 70
2
  9
$DIMTDEC
 70
2
  9
$DIMALTU
 70
2
  9
$DIMALTTD
 70
3
  9
$DIMTXSTY
  7
Standard
  9
$DIMAUNIT
 70
0
  9
$DIMADEC
 70
0
  9
$DIMALTRND
 40
0.0
  9
$DIMAZIN
 70
0
  9
$DIMDSEP
 70
44
  9
$DIMATFIT
 70
3
  9
$DIMFRAC
 70
0
  9
$DIMLDRBLK
  1

  9
$DIMLUNIT
 70
2
  9
$DIMLWD
 70
-2
  9
$DIMLWE
 70
-2
  9
$DIMTMOVE
 70
0
  9
$DIMFXL
 40
1.0
  9
$DIMFXLON
 70
0
  9
$DIMJOGANG
 40
0.785398163397
  9
$DIMTFILL
 70
0
  9
$DIMTFILLCLR
 70
0
  9
$DIMARCSYM
 70
0
  9
$DIMLTYPE
  6

  9
$DIMLTEX1
  6

  9
$DIMLTEX2
  6

  9
$DIMTXTDIRECTION
 70
0
  9
$LUNITS
 70
2
  9
$LUPREC
 70
4
  9
$SKETCHINC
 40
1.0
  9
$FILLETRAD
 40
10.0
  9
$AUNITS
 70
0
  9
$AUPREC
 70
2
  9
$MENU
  1
.
  9
$ELEVATION
 40
0.0
  9
$PELEVATION
 40
0.0
  9
$THICKNESS
 40
0.0
  9
$LIMCHECK
 70
0
  9
$CHAMFERA
 40
0.0
  9
$CHAMFERB
 40
0.0
  9
$CHAMFERC
 40
0.0
  9
$CHAMFERD
 40
0.0
  9
$SKPOLY
 70
0
  9
$TDCREATE
 40
2461168.612662037
  9
$TDUCREATE
 40
2458532.153996898
  9
$TDUPDATE
 40
2461168.612662037
  9
$TDUUPDATE
 40
2458532.1544311
  9
$TDINDWG
 40
0.0
  9
$TDUSRTIMER
 40
0.0
  9
$USRTIMER
 70
1
  9
$ANGBASE
 50
0.0
  9
$ANGDIR
 70
0
  9
$PDMODE
 70
0
  9
$PDSIZE
 40
0.0
  9
$PLINEWID
 40
0.0
  9
$SPLFRAME
 70
0
  9
$SPLINETYPE
 70
6
  9
$SPLINESEGS
 70
8
  9
$HANDSEED
  5
B4
  9
$SURFTAB1
 70
6
  9
$SURFTAB2
 70
6
  9
$SURFTYPE
 70
6
  9
$SURFU
 70
6
  9
$SURFV
 70
6
  9
$UCSBASE
  2

  9
$UCSNAME
  2

  9
$UCSORG
 10
0.0
 20
0.0
 30
0.0
  9
$UCSXDIR
 10
1.0
 20
0.0
 30
0.0
  9
$UCSYDIR
 10
0.0
 20
1.0
 30
0.0
  9
$UCSORTHOREF
  2

  9
$UCSORTHOVIEW
 70
0
  9
$UCSORGTOP
 10
0.0
 20
0.0
 30
0.0
  9
$UCSORGBOTTOM
 10
0.0
 20
0.0
 30
0.0
  9
$UCSORGLEFT
 10
0.0
 20
0.0
 30
0.0
  9
$UCSORGRIGHT
 10
0.0
 20
0.0
 30
0.0
  9
$UCSORGFRONT
 10
0.0
 20
0.0
 30
0.0
  9
$UCSORGBACK
 10
0.0
 20
0.0
 30
0.0
  9
$PUCSBASE
  2

  9
$PUCSNAME
  2

  9
$PUCSORG
 10
0.0
 20
0.0
 30
0.0
  9
$PUCSXDIR
 10
1.0
 20
0.0
 30
0.0
  9
$PUCSYDIR
 10
0.0
 20
1.0
 30
0.0
  9
$PUCSORTHOREF
  2

  9
$PUCSORTHOVIEW
 70
0
  9
$PUCSORGTOP
 10
0.0
 20
0.0
 30
0.0
  9
$PUCSORGBOTTOM
 10
0.0
 20
0.0
 30
0.0
  9
$PUCSORGLEFT
 10
0.0
 20
0.0
 30
0.0
  9
$PUCSORGRIGHT
 10
0.0
 20
0.0
 30
0.0
  9
$PUCSORGFRONT
 10
0.0
 20
0.0
 30
0.0
  9
$PUCSORGBACK
 10
0.0
 20
0.0
 30
0.0
  9
$USERI1
 70
0
  9
$USERI2
 70
0
  9
$USERI3
 70
0
  9
$USERI4
 70
0
  9
$USERI5
 70
0
  9
$USERR1
 40
0.0
  9
$USERR2
 40
0.0
  9
$USERR3
 40
0.0
  9
$USERR4
 40
0.0
  9
$USERR5
 40
0.0
  9
$WORLDVIEW
 70
1
  9
$SHADEDGE
 70
3
  9
$SHADEDIF
 70
70
  9
$TILEMODE
 70
1
  9
$MAXACTVP
 70
64
  9
$PINSBASE
 10
0.0
 20
0.0
 30
0.0
  9
$PLIMCHECK
 70
0
  9
$PEXTMIN
 10
1e+20
 20
1e+20
 30
1e+20
  9
$PEXTMAX
 10
-1e+20
 20
-1e+20
 30
-1e+20
  9
$PLIMMIN
 10
0.0
 20
0.0
  9
$PLIMMAX
 10
420.0
 20
297.0
  9
$UNITMODE
 70
0
  9
$VISRETAIN
 70
1
  9
$PLINEGEN
 70
0
  9
$PSLTSCALE
 70
1
  9
$TREEDEPTH
 70
3020
  9
$CMLSTYLE
  2
Standard
  9
$CMLJUST
 70
0
  9
$CMLSCALE
 40
20.0
  9
$PROXYGRAPHICS
 70
1
  9
$MEASUREMENT
 70
1
  9
$CELWEIGHT
370
-1
  9
$ENDCAPS
280
0
  9
$JOINSTYLE
280
0
  9
$LWDISPLAY
290
0
  9
$INSUNITS
 70
4
  9
$HYPERLINKBASE
  1

  9
$STYLESHEET
  1

  9
$XEDIT
290
1
  9
$CEPSNTYPE
380
0
  9
$PSTYLEMODE
290
1
  9
$FINGERPRINTGUID
  2
{80D73A84-89DF-4629-A7F3-1AAE278FF78A}
  9
$VERSIONGUID
  2
{2C2586F5-BFFE-4AB8-A3D1-A9223941C214}
  9
$EXTNAMES
290
1
  9
$PSVPSCALE
 40
0.0
  9
$OLESTARTUP
290
0
  9
$SORTENTS
280
127
  9
$INDEXCTL
280
0
  9
$HIDETEXT
280
1
  9
$XCLIPFRAME
280
1
  9
$HALOGAP
280
0
  9
$OBSCOLOR
 70
257
  9
$OBSLTYPE
280
0
  9
$INTERSECTIONDISPLAY
280
0
  9
$INTERSECTIONCOLOR
 70
257
  9
$DIMASSOC
280
2
  9
$PROJECTNAME
  1

  9
$CAMERADISPLAY
290
0
  9
$LENSLENGTH
 40
50.0
  9
$CAMERAHEIGHT
 40
0.0
  9
$STEPSPERSEC
 40
24.0
  9
$STEPSIZE
 40
100.0
  9
$3DDWFPREC
 40
2.0
  9
$PSOLWIDTH
 40
0.005
  9
$PSOLHEIGHT
 40
0.08
  9
$LOFTANG1
 40
1.570796326795
  9
$LOFTANG2
 40
1.570796326795
  9
$LOFTMAG1
 40
0.0
  9
$LOFTMAG2
 40
0.0
  9
$LOFTPARAM
 70
7
  9
$LOFTNORMALS
280
1
  9
$LATITUDE
 40
37.795
  9
$LONGITUDE
 40
-122.394
  9
$NORTHDIRECTION
 40
0.0
  9
$TIMEZONE
 70
-8000
  9
$LIGHTGLYPHDISPLAY
280
1
  9
$TILEMODELIGHTSYNCH
280
1
  9
$CMATERIAL
347
20
  9
$SOLIDHIST
280
0
  9
$SHOWHIST
280
1
  9
$DWFFRAME
280
2
  9
$DGNFRAME
280
2
  9
$REALWORLDSCALE
290
1
  9
$INTERFERECOLOR
 62
256
  9
$CSHADOW
280
0
  9
$SHADOWPLANELOCATION
 40
0.0
  0
ENDSEC
  0
SECTION
  2
CLASSES
  0
CLASS
  1
ACDBDICTIONARYWDFLT
  2
AcDbDictionaryWithDefault
  3
ObjectDBX Classes
 90
0
 91
0
280
0
281
0
  0
CLASS
  1
SUN
  2
AcDbSun
  3
SCENEOE
 90
1153
 91
0
280
0
281
0
  0
CLASS
  1
VISUALSTYLE
  2
AcDbVisualStyle
  3
ObjectDBX Classes
 90
4095
 91
0
280
0
281
0
  0
CLASS
  1
MATERIAL
  2
AcDbMaterial
  3
ObjectDBX Classes
 90
1153
 91
0
280
0
281
0
  0
CLASS
  1
SCALE
  2
AcDbScale
  3
ObjectDBX Classes
 90
1153
 91
0
280
0
281
0
  0
CLASS
  1
TABLESTYLE
  2
AcDbTableStyle
  3
ObjectDBX Classes
 90
4095
 91
0
280
0
281
0
  0
CLASS
  1
MLEADERSTYLE
  2
AcDbMLeaderStyle
  3
ACDB_MLEADERSTYLE_CLASS
 90
4095
 91
0
280
0
281
0
  0
CLASS
  1
DICTIONARYVAR
  2
AcDbDictionaryVar
  3
ObjectDBX Classes
 90
0
 91
0
280
0
281
0
  0
CLASS
  1
CELLSTYLEMAP
  2
AcDbCellStyleMap
  3
ObjectDBX Classes
 90
1152
 91
0
280
0
281
0
  0
CLASS
  1
MENTALRAYRENDERSETTINGS
  2
AcDbMentalRayRenderSettings
  3
SCENEOE
 90
1024
 91
0
280
0
281
0
  0
CLASS
  1
ACDBDETAILVIEWSTYLE
  2
AcDbDetailViewStyle
  3
ObjectDBX Classes
 90
1025
 91
0
280
0
281
0
  0
CLASS
  1
ACDBSECTIONVIEWSTYLE
  2
AcDbSectionViewStyle
  3
ObjectDBX Classes
 90
1025
 91
0
280
0
281
0
  0
CLASS
  1
RASTERVARIABLES
  2
AcDbRasterVariables
  3
ISM
 90
0
 91
0
280
0
281
0
  0
CLASS
  1
ACDBPLACEHOLDER
  2
AcDbPlaceHolder
  3
ObjectDBX Classes
 90
0
 91
0
280
0
281
0
  0
CLASS
  1
LAYOUT
  2
AcDbLayout
  3
ObjectDBX Classes
 90
0
 91
0
280
0
281
0
  0
ENDSEC
  0
SECTION
  2
TABLES
  0
TABLE
  2
VPORT
  5
8
330
0
100
AcDbSymbolTable
 70
1
  0
VPORT
  5
B0
330
8
100
AcDbSymbolTableRecord
100
AcDbViewportTableRecord
  2
*Active
 70
0
 10
0.0
 20
0.0
 11
1.0
 21
1.0
 12
1.4210854715202004e-14
 22
-4.973799150320701e-14
 13
0.0
 23
0.0
 14
0.5
 24
0.5
 15
0.5
 25
0.5
 16
0.0
 26
0.0
 36
1.0
 17
0.0
 27
0.0
 37
0.0
 40
74.75895072144259
 41
1.34
 42
50.0
 43
0.0
 44
0.0
 50
0.0
 51
0.0
 71
0
 72
1000
 73
1
 74
3
 75
0
 76
0
 77
0
 78
0
281
0
 65
1
110
0.0
120
0.0
130
0.0
111
1.0
121
0.0
131
0.0
112
0.0
122
1.0
132
0.0
 79
0
146
0.0
  0
ENDTAB
  0
TABLE
  2
LTYPE
  5
2
330
0
100
AcDbSymbolTable
 70
4
  0
LTYPE
  5
24
330
2
100
AcDbSymbolTableRecord
100
AcDbLinetypeTableRecord
  2
ByBlock
 70
0
  3

 72
65
 73
0
 40
0.0
  0
LTYPE
  5
25
330
2
100
AcDbSymbolTableRecord
100
AcDbLinetypeTableRecord
  2
ByLayer
 70
0
  3

 72
65
 73
0
 40
0.0
  0
LTYPE
  5
26
330
2
100
AcDbSymbolTableRecord
100
AcDbLinetypeTableRecord
  2
Continuous
 70
0
  3

 72
65
 73
0
 40
0.0
  0
LTYPE
  5
2F
330
2
100
AcDbSymbolTableRecord
100
AcDbLinetypeTableRecord
  2
HIDDEN
 70
0
  3
Hidden __ __ __ __ __ __ __ __ __ __ __ __ __ __
 72
65
 73
2
 40
9.525
 49
6.35
 74
0
 49
-3.175
 74
0
  0
ENDTAB
  0
TABLE
  2
LAYER
  5
1
330
0
100
AcDbSymbolTable
 70
3
  0
LAYER
  5
27
330
1
100
AcDbSymbolTableRecord
100
AcDbLayerTableRecord
  2
0
 70
0
 62
7
  6
Continuous
370
13
390
13
347
21
  0
LAYER
  5
28
330
1
100
AcDbSymbolTableRecord
100
AcDbLayerTableRecord
  2
Defpoints
 70
0
 62
7
  6
Continuous
290
0
370
-3
390
13
347
21
  0
LAYER
  5
30
330
1
100
AcDbSymbolTableRecord
100
AcDbLayerTableRecord
  2
hidden
 70
0
 62
7
  6
HIDDEN
370
9
390
13
347
21
  0
ENDTAB
  0
TABLE
  2
STYLE
  5
5
330
0
100
AcDbSymbolTable
 70
1
  0
STYLE
  5
29
330
5
100
AcDbSymbolTableRecord
100
AcDbTextStyleTableRecord
  2
Standard
 70
0
 40
0.0
 41
1.0
 50
0.0
 71
0
 42
2.5
  3
txt
  4

  0
ENDTAB
  0
TABLE
  2
VIEW
  5
7
330
0
100
AcDbSymbolTable
 70
0
  0
ENDTAB
  0
TABLE
  2
UCS
  5
6
330
0
100
AcDbSymbolTable
 70
0
  0
ENDTAB
  0
TABLE
  2
APPID
  5
3
330
0
100
AcDbSymbolTable
 70
3
  0
APPID
  5
2A
330
3
100
AcDbSymbolTableRecord
100
AcDbRegAppTableRecord
  2
ACAD
 70
0
  0
APPID
  5
B1
330
3
100
AcDbSymbolTableRecord
100
AcDbRegAppTableRecord
  2
HATCHBACKGROUNDCOLOR
 70
0
  0
APPID
  5
B2
330
3
100
AcDbSymbolTableRecord
100
AcDbRegAppTableRecord
  2
EZDXF
 70
0
  0
ENDTAB
  0
TABLE
  2
DIMSTYLE
  5
4
330
0
100
AcDbSymbolTable
 70
1
100
AcDbDimStyleTable
  0
DIMSTYLE
105
2B
330
4
100
AcDbSymbolTableRecord
100
AcDbDimStyleTableRecord
  2
Standard
 70
0
 40
1.0
 41
2.5
 42
0.625
 43
3.75
 44
1.25
 45
0.0
 46
0.0
 47
0.0
 48
0.0
 49
2.5
140
2.5
141
2.5
142
0.0
143
0.03937007874
144
1.0
145
0.0
146
1.0
147
0.625
148
0.0
 69
0
 70
0
 71
0
 72
0
 73
0
 74
0
 75
0
 76
0
 77
1
 78
8
 79
3
170
0
171
3
172
1
173
0
174
0
175
0
176
0
177
0
178
0
179
2
271
2
272
2
273
2
274
3
275
0
276
0
277
2
278
44
279
0
280
0
281
0
282
0
283
0
284
8
285
0
286
0
288
0
289
3
290
0
371
-2
372
-2
  0
ENDTAB
  0
TABLE
  2
BLOCK_RECORD
  5
9
330
0
100
AcDbSymbolTable
 70
2
  0
BLOCK_RECORD
  5
17
330
9
100
AcDbSymbolTableRecord
100
AcDbBlockTableRecord
  2
*Model_Space
340
1A
 70
0
280
1
281
0
  0
BLOCK_RECORD
  5
1B
330
9
100
AcDbSymbolTableRecord
100
AcDbBlockTableRecord
  2
*Paper_Space
340
1E
 70
0
280
1
281
0
  0
ENDTAB
  0
ENDSEC
  0
SECTION
  2
BLOCKS
  0
BLOCK
  5
18
330
17
100
AcDbEntity
  8
0
100
AcDbBlockBegin
  2
*Model_Space
 70
0
 10
0.0
 20
0.0
 30
0.0
  3
*Model_Space
  1

  0
ENDBLK
  5
19
330
17
100
AcDbEntity
  8
0
100
AcDbBlockEnd
  0
BLOCK
  5
1C
330
1B
100
AcDbEntity
  8
0
100
AcDbBlockBegin
  2
*Paper_Space
 70
0
 10
0.0
 20
0.0
 30
0.0
  3
*Paper_Space
  1

  0
ENDBLK
  5
1D
330
1B
100
AcDbEntity
  8
0
100
AcDbBlockEnd
  0
ENDSEC
  0
SECTION
  2
ENTITIES
  0
ELLIPSE
  5
31
330
17
100
AcDbEntity
  8
0
100
AcDbEllipse
 10
3.5355339059327484
 20
-18.37117307087391
 30
0.0
 11
-10.000000000000002
 21
17.320508075688775
 31
0.0
 40
0.5773502691896258
 41
4.75564419002831
 42
5.611611566817991
  0
LINE
  5
32
330
17
100
AcDbEntity
  8
0
100
AcDbLine
 10
1.9292871498425406
 20
-1.219545582914435
 30
0.0
 11
30.213558397304446
 21
15.11038603564009
 31
0.0
  0
ELLIPSE
  5
33
330
17
100
AcDbEntity
  8
0
100
AcDbEllipse
 10
31.81980515339465
 20
-2.0412414523193885
 30
0.0
 11
-10.000000000000002
 21
17.320508075688775
 31
0.0
 40
0.5773502691896258
 41
4.75564419002831
 42
5.611611566817991
  0
LINE
  5
34
330
17
100
AcDbEntity
  8
0
100
AcDbLine
 10
41.37803432217474
 20
4.475829533835572
 30
0.0
 11
13.093763074712836
 21
-11.854102084718953
 31
0.0
  0
ELLIPSE
  5
35
330
17
100
AcDbEntity
  8
0
100
AcDbEllipse
 10
14.976761962286435
 20
-15.37827619273871
 30
0.0
 11
-2.0
 21
3.464101615137755
 31
0.0
 40
0.5773502691896258
 41
6.2262730956616466
 42
6.283185307179586
  0
ELLIPSE
  5
36
330
17
100
AcDbEntity
  8
0
100
AcDbEllipse
 10
14.976761962286435
 20
-15.37827619273871
 30
0.0
 11
-2.0
 21
3.464101615137755
 31
0.0
 40
0.5773502691896258
 41
0.0
 42
2.884345599748752
  0
LINE
  5
37
330
17
100
AcDbEntity
  8
0
100
AcDbLine
 10
44.68638297506786
 20
-2.692234557329339
 30
0.0
 11
16.402111727605952
 21
-19.022166175883864
 31
0.0
  0
ELLIPSE
  5
38
330
17
100
AcDbEntity
  8
0
100
AcDbEllipse
 10
43.261033209748334
 20
0.9516554258158134
 30
0.0
 11
-2.0
 21
3.464101615137755
 31
0.0
 40
0.5773502691896258
 41
0.056912211518826084
 42
2.884345599748752
  0
ELLIPSE
  5
39
330
17
100
AcDbEntity
  8
0
100
AcDbEllipse
 10
3.5355339059327484
 20
-18.37117307087391
 30
0.0
 11
-9.999999999999998
 21
17.320508075688775
 31
0.0
 40
0.5773502691896258
 41
3.4990071285923916
 42
4.35497450538209
  0
ELLIPSE
  5
3A
330
17
100
AcDbEntity
  8
0
100
AcDbEllipse
 10
31.81980515339465
 20
-2.0412414523193885
 30
0.0
 11
-9.999999999999998
 21
17.320508075688775
 31
0.0
 40
0.5773502691896258
 41
3.4990071285923916
 42
4.35497450538209
  0
LINE
  5
3B
330
17
100
AcDbEntity
  8
0
100
AcDbLine
 10
44.68638297506786
 20
-16.247292685094042
 30
0.0
 11
16.402111727605952
 21
-32.57722430364856
 31
0.0
  0
ELLIPSE
  5
3C
330
17
100
AcDbEntity
  8
0
100
AcDbEllipse
 10
14.976761962286442
 20
-34.57526214540052
 30
0.0
 11
-1.9999999999999996
 21
3.464101615137755
 31
0.0
 40
0.5773502691896257
 41
4.969636034225729
 42
6.283185307179586
  0
ELLIPSE
  5
3D
330
17
100
AcDbEntity
  8
0
100
AcDbEllipse
 10
14.976761962286442
 20
-34.57526214540052
 30
0.0
 11
-1.9999999999999996
 21
3.464101615137755
 31
0.0
 40
0.5773502691896257
 41
4.440892098500626e-16
 42
1.627708538312806
  0
LINE
  5
3E
330
17
100
AcDbEntity
  8
0
100
AcDbLine
 10
13.093763074712495
 20
-35.9251364241716
 30
0.0
 11
41.3780343221744
 21
-19.595204805617072
 31
0.0
  0
ELLIPSE
  5
3F
330
17
100
AcDbEntity
  8
0
100
AcDbEllipse
 10
43.26103320974835
 20
-18.245330526846004
 30
0.0
 11
-1.9999999999999996
 21
3.464101615137755
 31
0.0
 40
0.5773502691896257
 41
1.3135492729538685
 42
1.627708538312806
  0
ELLIPSE
  5
40
330
17
100
AcDbEntity
  8
0
100
AcDbEllipse
 10
3.5355339059327484
 20
-18.37117307087391
 30
0.0
 11
-9.999999999999998
 21
17.320508075688775
 31
0.0
 40
0.5773502691896258
 41
2.242370067156485
 42
3.0983374439461437
  0
ELLIPSE
  5
41
330
17
100
AcDbEntity
  8
0
100
AcDbEllipse
 10
-0.8346263385554593
 20
-31.378747753797384
 30
0.0
 11
-2.0000000000000004
 21
3.464101615137755
 31
0.0
 40
0.5773502691896257
 41
3.712998972789817
 42
6.283185307179586
  0
ELLIPSE
  5
42
330
17
100
AcDbEntity
  8
0
100
AcDbEllipse
 10
-0.8346263385554593
 20
-31.378747753797384
 30
0.0
 11
-2.0000000000000004
 21
3.464101615137755
 31
0.0
 40
0.5773502691896257
 41
0.0
 42
0.37107147687691544
  0
LINE
  5
43
330
17
100
AcDbEntity
  8
0
100
AcDbLine
 10
-3.4237334171738425
 20
-28.569125955471804
 30
0.0
 11
-1.9732766516227516
 21
-27.731704351432967
 31
0.0
  0
LINE
  5
44
330
17
100
AcDbEntity
  8
0
100
AcDbLine
 10
-10.32375900532351
 20
-13.619121939636898
 30
0.0
 11
-7.792352261904183
 21
-12.157613574895315
 31
0.0
  0
ELLIPSE
  5
45
330
17
100
AcDbEntity
  8
0
100
AcDbEllipse
 10
3.5355339059327484
 20
-18.37117307087391
 30
0.0
 11
-9.999999999999998
 21
17.320508075688775
 31
0.0
 40
0.5773502691896258
 41
0.9857330057205853
 42
1.841700382510246
  0
ELLIPSE
  5
46
330
17
100
AcDbEntity
  8
0
100
AcDbEllipse
 10
-10.606601717798203
 20
-10.206207261596646
 30
0.0
 11
-2.0
 21
3.464101615137755
 31
0.0
 40
0.5773502691896257
 41
2.4563619113539223
 42
3.141592653589793
  0
ELLIPSE
  5
47
330
17
100
AcDbEntity
  8
0
100
AcDbEllipse
 10
-10.606601717798203
 20
-10.206207261596646
 30
0.0
 11
-2.0
 21
3.464101615137755
 31
0.0
 40
0.5773502691896257
 41
3.141592653589793
 42
5.397619722620561
  0
LINE
  5
48
330
17
100
AcDbEntity
  8
0
100
AcDbLine
 10
-3.4237334171737572
 20
-0.13735046155971098
 30
0.0
 11
24.86053783028815
 21
16.192581156994812
 31
0.0
  0
ELLIPSE
  5
49
330
17
100
AcDbEntity
  8
0
100
AcDbEllipse
 10
3.5355339059327484
 20
-18.37117307087391
 30
0.0
 11
-9.999999999999998
 21
17.320508075688775
 31
0.0
 40
0.5773502691896258
 41
6.0122812514642305
 42
6.283185307179586
  0
ELLIPSE
  5
4A
330
17
100
AcDbEntity
  8
0
100
AcDbEllipse
 10
3.5355339059327484
 20
-18.37117307087391
 30
0.0
 11
-9.999999999999998
 21
17.320508075688775
 31
0.0
 40
0.5773502691896258
 41
0.0
 42
0.5850633210743112
  0
ELLIPSE
  5
4B
330
17
100
AcDbEntity
  8
0
100
AcDbEllipse
 10
31.81980515339465
 20
-2.0412414523193885
 30
0.0
 11
-9.999999999999998
 21
17.320508075688775
 31
0.0
 40
0.5773502691896258
 41
6.0122812514642305
 42
6.283185307179586
  0
ELLIPSE
  5
4C
330
17
100
AcDbEntity
  8
0
100
AcDbEllipse
 10
27.449644908906446
 20
16.01255961771822
 30
0.0
 11
-2.0000000000000004
 21
3.464101615137755
 31
0.0
 40
0.5773502691896258
 41
1.1997248499179811
 42
2.142202645994954
  0
ELLIPSE
  5
4D
330
17
100
AcDbEntity
  8
0
100
AcDbEllipse
 10
3.5355339059327484
 20
-18.37117307087391
 30
0.0
 11
-3.9999999999999996
 21
6.92820323027551
 31
0.0
 40
0.5773502691896258
 41
5.497787143782138
 42
6.283185307179586
  0
ELLIPSE
  5
4E
330
17
100
AcDbEntity
  8
0
100
AcDbEllipse
 10
3.5355339059327484
 20
-18.37117307087391
 30
0.0
 11
-3.9999999999999996
 21
6.92820323027551
 31
0.0
 40
0.5773502691896258
 41
1.1102230246251565e-16
 42
3.141592653589793
  0
ELLIPSE
  5
4F
330
17
100
AcDbEntity
  8
0
100
AcDbEllipse
 10
3.5355339059327484
 20
-18.37117307087391
 30
0.0
 11
-3.9999999999999996
 21
6.92820323027551
 31
0.0
 40
0.5773502691896258
 41
3.141592653589793
 42
5.497787143782138
  0
ELLIPSE
  5
50
330
17
100
AcDbEntity
  8
0
100
AcDbEllipse
 10
-0.8346263385554593
 20
-0.3173720008362988
 30
0.0
 11
-2.0000000000000004
 21
3.464101615137755
 31
0.0
 40
0.5773502691896258
 41
1.1997248499179811
 42
3.141592653589793
  0
ELLIPSE
  5
51
330
17
100
AcDbEntity
  8
0
100
AcDbEllipse
 10
-0.8346263385554593
 20
-0.3173720008362988
 30
0.0
 11
-2.0000000000000004
 21
3.464101615137755
 31
0.0
 40
0.5773502691896258
 41
3.141592653589793
 42
4.140982661184653
  0
ELLIPSE
  5
52
330
17
100
AcDbEntity
  8
0
100
AcDbEllipse
 10
-31.81980515339463
 20
2.041241452319243
 30
0.0
 11
10.000000000000002
 21
-17.320508075688775
 31
0.0
 40
0.5773502691896257
 41
-4.040815240023093
 42
-3.1848478632334127
  0
LINE
  5
53
330
17
100
AcDbEntity
  8
0
100
AcDbLine
 10
-30.213558397304418
 20
17.33813494625143
 30
0.0
 11
-1.9292871498425122
 21
33.668066564805954
 31
0.0
  0
ELLIPSE
  5
54
330
17
100
AcDbEntity
  8
0
100
AcDbEllipse
 10
-3.535533905932727
 20
18.371173070873766
 30
0.0
 11
10.000000000000002
 21
-17.320508075688775
 31
0.0
 40
0.5773502691896257
 41
-4.040815240023093
 42
-3.1848478632334127
  0
LINE
  5
55
330
17
100
AcDbEntity
  8
0
100
AcDbLine
 10
-13.093763074712811
 20
35.925136424171356
 30
0.0
 11
-41.37803432217471
 21
19.59520480561683
 31
0.0
  0
ELLIPSE
  5
56
330
17
100
AcDbEntity
  8
0
100
AcDbEllipse
 10
-43.26103320974832
 20
18.245330526845844
 30
0.0
 11
2.0
 21
-3.464101615137755
 31
0.0
 40
0.5773502691896257
 41
-6.283185307179586
 42
-4.65547676886675
  0
ELLIPSE
  5
57
330
17
100
AcDbEntity
  8
0
100
AcDbEllipse
 10
-43.26103320974832
 20
18.245330526845844
 30
0.0
 11
2.0
 21
-3.464101615137755
 31
0.0
 40
0.5773502691896257
 41
-1.3135492729538552
 42
-0.0
  0
LINE
  5
58
330
17
100
AcDbEntity
  8
0
100
AcDbLine
 10
-40.81800679840863
 20
18.480700712014816
 30
0.0
 11
-44.68638297506784
 21
16.247292685093882
 31
0.0
  0
ELLIPSE
  5
59
330
17
100
AcDbEntity
  8
0
100
AcDbEllipse
 10
-31.81980515339463
 20
2.041241452319243
 30
0.0
 11
9.999999999999998
 21
-17.320508075688775
 31
0.0
 40
0.5773502691896258
 41
-2.7841781785871937
 42
-1.928210801797495
  0
ELLIPSE
  5
5A
330
17
100
AcDbEntity
  8
0
100
AcDbEllipse
 10
-43.26103320974832
 20
-0.9516554258159662
 30
0.0
 11
2.0000000000000004
 21
-3.464101615137755
 31
0.0
 40
0.5773502691896258
 41
-6.283185307179586
 42
-3.3988397074308323
  0
ELLIPSE
  5
5B
330
17
100
AcDbEntity
  8
0
100
AcDbEllipse
 10
-43.26103320974832
 20
-0.9516554258159662
 30
0.0
 11
2.0000000000000004
 21
-3.464101615137755
 31
0.0
 40
0.5773502691896258
 41
-0.05691221151790948
 42
-0.0
  0
LINE
  5
5C
330
17
100
AcDbEntity
  8
0
100
AcDbLine
 10
-41.37803432217437
 20
-4.475829533836205
 30
0.0
 11
-41.150508348633714
 21
-4.344467351764874
 31
0.0
  0
LINE
  5
5D
330
17
100
AcDbEntity
  8
0
100
AcDbLine
 10
-30.21355839730431
 20
-15.110386035640314
 30
0.0
 11
-26.848993405410276
 21
-13.167853531864301
 31
0.0
  0
ELLIPSE
  5
5E
330
17
100
AcDbEntity
  8
0
100
AcDbEllipse
 10
-31.81980515339463
 20
2.041241452319243
 30
0.0
 11
9.999999999999998
 21
-17.320508075688775
 31
0.0
 40
0.5773502691896258
 41
-1.5275411171512472
 42
-0.6715737403615885
  0
ELLIPSE
  5
5F
330
17
100
AcDbEntity
  8
0
100
AcDbEllipse
 10
-27.449644908906418
 20
-16.012559617718374
 30
0.0
 11
2.0
 21
-3.464101615137755
 31
0.0
 40
0.5773502691896257
 41
-3.141592653589793
 42
-2.1422026459949204
  0
ELLIPSE
  5
60
330
17
100
AcDbEntity
  8
0
100
AcDbEllipse
 10
-27.449644908906418
 20
-16.012559617718374
 30
0.0
 11
2.0
 21
-3.464101615137755
 31
0.0
 40
0.5773502691896257
 41
-5.083460457261605
 42
-3.141592653589793
  0
LINE
  5
61
330
17
100
AcDbEntity
  8
0
100
AcDbLine
 10
-17.96051224213837
 20
-9.210040402627087
 30
0.0
 11
-9.375745104460638
 21
-4.253622784758593
 31
0.0
  0
ELLIPSE
  5
62
330
17
100
AcDbEntity
  8
0
100
AcDbEllipse
 10
-31.81980515339463
 20
2.041241452319243
 30
0.0
 11
9.999999999999998
 21
-17.320508075688775
 31
0.0
 40
0.5773502691896258
 41
-6.283185307179586
 42
-5.698121986105275
  0
ELLIPSE
  5
63
330
17
100
AcDbEntity
  8
0
100
AcDbEllipse
 10
-31.81980515339463
 20
2.041241452319243
 30
0.0
 11
9.999999999999998
 21
-17.320508075688775
 31
0.0
 40
0.5773502691896258
 41
-0.2709040557153495
 42
-0.0
  0
ELLIPSE
  5
64
330
17
100
AcDbEntity
  8
0
100
AcDbEllipse
 10
-17.677669529663678
 20
-6.123724356958014
 30
0.0
 11
1.9999999999999998
 21
-3.464101615137755
 31
0.0
 40
0.5773502691896258
 41
-3.1415926535897936
 42
-0.8855655845590259
  0
ELLIPSE
  5
65
330
17
100
AcDbEntity
  8
0
100
AcDbEllipse
 10
-17.677669529663678
 20
-6.123724356958014
 30
0.0
 11
1.9999999999999998
 21
-3.464101615137755
 31
0.0
 40
0.5773502691896258
 41
-3.8268233958256648
 42
-3.1415926535897936
  0
LINE
  5
66
330
17
100
AcDbEntity
  8
0
100
AcDbLine
 10
-17.96051224213837
 20
-2.7108096789177694
 30
0.0
 11
10.323759005323534
 21
13.619121939636756
 31
0.0
  0
ELLIPSE
  5
67
330
17
100
AcDbEntity
  8
0
100
AcDbEllipse
 10
10.606601717798224
 20
10.206207261596505
 30
0.0
 11
1.9999999999999998
 21
-3.464101615137755
 31
0.0
 40
0.5773502691896258
 41
-2.4563619113540263
 42
-1.2626415407652876
  0
LINE
  5
68
330
17
100
AcDbEntity
  8
0
100
AcDbLine
 10
-24.860537830288123
 20
12.23919433691723
 30
0.0
 11
3.423733417173782
 21
28.569125955471755
 31
0.0
  0
ELLIPSE
  5
69
330
17
100
AcDbEntity
  8
0
100
AcDbEllipse
 10
-31.81980515339463
 20
2.041241452319243
 30
0.0
 11
9.999999999999998
 21
-17.320508075688775
 31
0.0
 40
0.5773502691896258
 41
-5.297452301459001
 42
-4.441484924669334
  0
ELLIPSE
  5
6A
330
17
100
AcDbEntity
  8
0
100
AcDbEllipse
 10
-3.535533905932727
 20
18.371173070873766
 30
0.0
 11
9.999999999999998
 21
-17.320508075688775
 31
0.0
 40
0.5773502691896258
 41
-5.297452301459001
 42
-4.441484924669334
  0
ELLIPSE
  5
6B
330
17
100
AcDbEntity
  8
0
100
AcDbEllipse
 10
0.8346263385554806
 20
31.378747753797242
 30
0.0
 11
1.9999999999999998
 21
-3.464101615137755
 31
0.0
 40
0.5773502691896258
 41
-2.570186334389756
 42
-0.3710714768769918
  0
ELLIPSE
  5
6C
330
17
100
AcDbEntity
  8
0
100
AcDbEllipse
 10
-31.81980515339463
 20
2.041241452319243
 30
0.0
 11
3.9999999999999996
 21
-6.92820323027551
 31
0.0
 40
0.5773502691896258
 41
-6.283185307179586
 42
-3.9269908169872414
  0
ELLIPSE
  5
6D
330
17
100
AcDbEntity
  8
0
100
AcDbEllipse
 10
-31.81980515339463
 20
2.041241452319243
 30
0.0
 11
3.9999999999999996
 21
-6.92820323027551
 31
0.0
 40
0.5773502691896258
 41
-3.141592653589793
 42
-0.0
  0
ELLIPSE
  5
6E
330
17
100
AcDbEntity
  8
0
100
AcDbEllipse
 10
-31.81980515339463
 20
2.041241452319243
 30
0.0
 11
3.9999999999999996
 21
-6.92820323027551
 31
0.0
 40
0.5773502691896258
 41
-3.9269908169872414
 42
-3.141592653589793
  0
ELLIPSE
  5
6F
330
17
100
AcDbEntity
  8
0
100
AcDbEllipse
 10
-27.44964490890642
 20
15.048816135242719
 30
0.0
 11
1.9999999999999998
 21
-3.464101615137755
 31
0.0
 40
0.5773502691896258
 41
-6.283185307179586
 42
-5.912113830302671
  0
ELLIPSE
  5
70
330
17
100
AcDbEntity
  8
0
100
AcDbEllipse
 10
-27.44964490890642
 20
15.048816135242719
 30
0.0
 11
1.9999999999999998
 21
-3.464101615137755
 31
0.0
 40
0.5773502691896258
 41
-2.570186334389756
 42
-0.0
  0
LINE
  5
71
330
17
100
AcDbEntity
  8
0
100
AcDbLine
 10
-6.464466094067253
 20
-1.0506649951851355
 30
0.0
 11
21.819805153394654
 21
15.27926662336939
 31
0.0
  0
LINE
  5
72
330
17
100
AcDbEntity
  8
0
100
AcDbLine
 10
-21.81980515339463
 20
-15.279266623369537
 30
0.0
 11
-9.30741374206665
 21
-8.055234073833367
 31
0.0
  0
ELLIPSE
  5
73
330
17
100
AcDbEntity
  8
hidden
100
AcDbEllipse
 10
43.261033209748334
 20
0.9516554258158134
 30
0.0
 11
-2.0
 21
3.464101615137755
 31
0.0
 40
0.5773502691896258
 41
6.2262730956616466
 42
6.283185307179586
  0
ELLIPSE
  5
74
330
17
100
AcDbEntity
  8
hidden
100
AcDbEllipse
 10
43.261033209748334
 20
0.9516554258158134
 30
0.0
 11
-2.0
 21
3.464101615137755
 31
0.0
 40
0.5773502691896258
 41
0.0
 42
0.056912211518826084
  0
ELLIPSE
  5
75
330
17
100
AcDbEntity
  8
hidden
100
AcDbEllipse
 10
43.26103320974835
 20
-18.245330526846004
 30
0.0
 11
-1.9999999999999996
 21
3.464101615137755
 31
0.0
 40
0.5773502691896257
 41
4.969636034225729
 42
6.283185307179586
  0
ELLIPSE
  5
76
330
17
100
AcDbEntity
  8
hidden
100
AcDbEllipse
 10
43.26103320974835
 20
-18.245330526846004
 30
0.0
 11
-1.9999999999999996
 21
3.464101615137755
 31
0.0
 40
0.5773502691896257
 41
4.440892098500626e-16
 42
1.3135492729538685
  0
LINE
  5
77
330
17
100
AcDbEntity
  8
hidden
100
AcDbLine
 10
1.9292871498424269
 20
-33.668066564806054
 30
0.0
 11
30.213558397304332
 21
-17.33813494625153
 31
0.0
  0
ELLIPSE
  5
78
330
17
100
AcDbEntity
  8
hidden
100
AcDbEllipse
 10
31.81980515339465
 20
-2.0412414523193885
 30
0.0
 11
-9.999999999999998
 21
17.320508075688775
 31
0.0
 40
0.5773502691896258
 41
2.242370067156485
 42
3.0983374439461437
  0
LINE
  5
79
330
17
100
AcDbEntity
  8
hidden
100
AcDbLine
 10
-1.9732766516227516
 20
-27.731704351432967
 30
0.0
 11
24.860537830288063
 21
-12.23919433691728
 31
0.0
  0
ELLIPSE
  5
7A
330
17
100
AcDbEntity
  8
hidden
100
AcDbEllipse
 10
27.449644908906446
 20
-15.048816135242866
 30
0.0
 11
-2.0000000000000004
 21
3.464101615137755
 31
0.0
 40
0.5773502691896257
 41
3.712998972789817
 42
6.283185307179586
  0
ELLIPSE
  5
7B
330
17
100
AcDbEntity
  8
hidden
100
AcDbEllipse
 10
27.449644908906446
 20
-15.048816135242866
 30
0.0
 11
-2.0000000000000004
 21
3.464101615137755
 31
0.0
 40
0.5773502691896257
 41
0.0
 42
0.37107147687691544
  0
LINE
  5
7C
330
17
100
AcDbEntity
  8
hidden
100
AcDbLine
 10
-7.792352261904183
 20
-12.157613574895315
 30
0.0
 11
17.960512242138396
 21
2.7108096789176273
 31
0.0
  0
ELLIPSE
  5
7D
330
17
100
AcDbEntity
  8
hidden
100
AcDbEllipse
 10
31.81980515339465
 20
-2.0412414523193885
 30
0.0
 11
-9.999999999999998
 21
17.320508075688775
 31
0.0
 40
0.5773502691896258
 41
0.9857330057205853
 42
1.841700382510246
  0
LINE
  5
7E
330
17
100
AcDbEntity
  8
hidden
100
AcDbLine
 10
-10.32375900532351
 20
-7.119891215927574
 30
0.0
 11
17.960512242138396
 21
9.210040402626952
 31
0.0
  0
ELLIPSE
  5
7F
330
17
100
AcDbEntity
  8
hidden
100
AcDbEllipse
 10
17.6776695296637
 20
6.123724356957874
 30
0.0
 11
-2.0
 21
3.464101615137755
 31
0.0
 40
0.5773502691896257
 41
2.4563619113539223
 42
3.141592653589793
  0
ELLIPSE
  5
80
330
17
100
AcDbEntity
  8
hidden
100
AcDbEllipse
 10
17.6776695296637
 20
6.123724356957874
 30
0.0
 11
-2.0
 21
3.464101615137755
 31
0.0
 40
0.5773502691896257
 41
3.141592653589793
 42
5.397619722620561
  0
ELLIPSE
  5
81
330
17
100
AcDbEntity
  8
hidden
100
AcDbEllipse
 10
31.81980515339465
 20
-2.0412414523193885
 30
0.0
 11
-9.999999999999998
 21
17.320508075688775
 31
0.0
 40
0.5773502691896258
 41
0.0
 42
0.5850633210743112
  0
ELLIPSE
  5
82
330
17
100
AcDbEntity
  8
hidden
100
AcDbEllipse
 10
27.449644908906446
 20
16.01255961771822
 30
0.0
 11
-2.0000000000000004
 21
3.464101615137755
 31
0.0
 40
0.5773502691896258
 41
2.142202645994954
 42
3.141592653589793
  0
ELLIPSE
  5
83
330
17
100
AcDbEntity
  8
hidden
100
AcDbEllipse
 10
27.449644908906446
 20
16.01255961771822
 30
0.0
 11
-2.0000000000000004
 21
3.464101615137755
 31
0.0
 40
0.5773502691896258
 41
3.141592653589793
 42
4.140982661184653
  0
ELLIPSE
  5
84
330
17
100
AcDbEntity
  8
hidden
100
AcDbEllipse
 10
31.81980515339465
 20
-2.0412414523193885
 30
0.0
 11
-3.9999999999999996
 21
6.92820323027551
 31
0.0
 40
0.5773502691896258
 41
5.497787143782138
 42
6.283185307179586
  0
ELLIPSE
  5
85
330
17
100
AcDbEntity
  8
hidden
100
AcDbEllipse
 10
31.81980515339465
 20
-2.0412414523193885
 30
0.0
 11
-3.9999999999999996
 21
6.92820323027551
 31
0.0
 40
0.5773502691896258
 41
1.1102230246251565e-16
 42
3.141592653589793
  0
ELLIPSE
  5
86
330
17
100
AcDbEntity
  8
hidden
100
AcDbEllipse
 10
31.81980515339465
 20
-2.0412414523193885
 30
0.0
 11
-3.9999999999999996
 21
6.92820323027551
 31
0.0
 40
0.5773502691896258
 41
3.141592653589793
 42
5.497787143782138
  0
LINE
  5
87
330
17
100
AcDbEntity
  8
hidden
100
AcDbLine
 10
31.81980515339465
 20
4.490731195102421
 30
0.0
 11
3.535533905932745
 21
-11.839200423452105
 31
0.0
  0
LINE
  5
88
330
17
100
AcDbEntity
  8
hidden
100
AcDbLine
 10
-16.40211172760594
 20
32.57722430364841
 30
0.0
 11
-40.81800679840863
 21
18.480700712014816
 31
0.0
  0
ELLIPSE
  5
89
330
17
100
AcDbEntity
  8
hidden
100
AcDbEllipse
 10
-14.976761962286417
 20
34.575262145400366
 30
0.0
 11
2.0
 21
-3.464101615137755
 31
0.0
 40
0.5773502691896257
 41
-6.283185307179586
 42
-4.65547676886675
  0
ELLIPSE
  5
8A
330
17
100
AcDbEntity
  8
hidden
100
AcDbEllipse
 10
-14.976761962286417
 20
34.575262145400366
 30
0.0
 11
2.0
 21
-3.464101615137755
 31
0.0
 40
0.5773502691896257
 41
-1.3135492729538552
 42
-0.0
  0
ELLIPSE
  5
8B
330
17
100
AcDbEntity
  8
hidden
100
AcDbEllipse
 10
-3.535533905932727
 20
18.371173070873766
 30
0.0
 11
9.999999999999998
 21
-17.320508075688775
 31
0.0
 40
0.5773502691896258
 41
-2.7841781785871937
 42
-1.928210801797495
  0
LINE
  5
8C
330
17
100
AcDbEntity
  8
hidden
100
AcDbLine
 10
-16.402111727605934
 20
19.0221661758837
 30
0.0
 11
-44.68638297506784
 21
2.6922345573291757
 31
0.0
  0
LINE
  5
8D
330
17
100
AcDbEntity
  8
hidden
100
AcDbLine
 10
-41.150508348633714
 20
-4.344467351764874
 30
0.0
 11
-13.093763074712466
 21
11.85410208471832
 31
0.0
  0
ELLIPSE
  5
8E
330
17
100
AcDbEntity
  8
hidden
100
AcDbEllipse
 10
-14.976761962286412
 20
15.378276192738555
 30
0.0
 11
2.0000000000000004
 21
-3.464101615137755
 31
0.0
 40
0.5773502691896258
 41
-6.283185307179586
 42
-3.3988397074308323
  0
ELLIPSE
  5
8F
330
17
100
AcDbEntity
  8
hidden
100
AcDbEllipse
 10
-14.976761962286412
 20
15.378276192738555
 30
0.0
 11
2.0000000000000004
 21
-3.464101615137755
 31
0.0
 40
0.5773502691896258
 41
-0.05691221151790948
 42
-0.0
  0
LINE
  5
90
330
17
100
AcDbEntity
  8
hidden
100
AcDbLine
 10
-26.848993405410276
 20
-13.167853531864301
 30
0.0
 11
-1.9292871498424056
 21
1.2195455829142112
 31
0.0
  0
ELLIPSE
  5
91
330
17
100
AcDbEntity
  8
hidden
100
AcDbEllipse
 10
-3.535533905932727
 20
18.371173070873766
 30
0.0
 11
9.999999999999998
 21
-17.320508075688775
 31
0.0
 40
0.5773502691896258
 41
-1.5275411171512472
 42
-0.6715737403615885
  0
LINE
  5
92
330
17
100
AcDbEntity
  8
hidden
100
AcDbLine
 10
-24.860537830288038
 20
-16.192581156994965
 30
0.0
 11
3.4237334171738674
 21
0.13735046155956
 31
0.0
  0
ELLIPSE
  5
93
330
17
100
AcDbEntity
  8
hidden
100
AcDbEllipse
 10
0.8346263385554842
 20
0.31737200083615136
 30
0.0
 11
2.0
 21
-3.464101615137755
 31
0.0
 40
0.5773502691896257
 41
-3.141592653589793
 42
-2.1422026459949204
  0
ELLIPSE
  5
94
330
17
100
AcDbEntity
  8
hidden
100
AcDbEllipse
 10
0.8346263385554842
 20
0.31737200083615136
 30
0.0
 11
2.0
 21
-3.464101615137755
 31
0.0
 40
0.5773502691896257
 41
-5.083460457261605
 42
-3.141592653589793
  0
LINE
  5
95
330
17
100
AcDbEntity
  8
hidden
100
AcDbLine
 10
-9.375745104460638
 20
-4.253622784758593
 30
0.0
 11
10.323759005323534
 21
7.119891215927439
 31
0.0
  0
ELLIPSE
  5
96
330
17
100
AcDbEntity
  8
hidden
100
AcDbEllipse
 10
-3.535533905932727
 20
18.371173070873766
 30
0.0
 11
9.999999999999998
 21
-17.320508075688775
 31
0.0
 40
0.5773502691896258
 41
-6.283185307179586
 42
-5.698121986105275
  0
ELLIPSE
  5
97
330
17
100
AcDbEntity
  8
hidden
100
AcDbEllipse
 10
-3.535533905932727
 20
18.371173070873766
 30
0.0
 11
9.999999999999998
 21
-17.320508075688775
 31
0.0
 40
0.5773502691896258
 41
-0.2709040557153495
 42
-0.0
  0
ELLIPSE
  5
98
330
17
100
AcDbEntity
  8
hidden
100
AcDbEllipse
 10
10.606601717798224
 20
10.206207261596505
 30
0.0
 11
1.9999999999999998
 21
-3.464101615137755
 31
0.0
 40
0.5773502691896258
 41
-1.2626415407652876
 42
-0.8855655845590259
  0
ELLIPSE
  5
99
330
17
100
AcDbEntity
  8
hidden
100
AcDbEllipse
 10
10.606601717798224
 20
10.206207261596505
 30
0.0
 11
1.9999999999999998
 21
-3.464101615137755
 31
0.0
 40
0.5773502691896258
 41
-3.1415926535897936
 42
-2.4563619113540263
  0
ELLIPSE
  5
9A
330
17
100
AcDbEntity
  8
hidden
100
AcDbEllipse
 10
10.606601717798224
 20
10.206207261596505
 30
0.0
 11
1.9999999999999998
 21
-3.464101615137755
 31
0.0
 40
0.5773502691896258
 41
-3.8268233958256648
 42
-3.1415926535897936
  0
ELLIPSE
  5
9B
330
17
100
AcDbEntity
  8
hidden
100
AcDbEllipse
 10
0.8346263385554806
 20
31.378747753797242
 30
0.0
 11
1.9999999999999998
 21
-3.464101615137755
 31
0.0
 40
0.5773502691896258
 41
-6.283185307179586
 42
-5.912113830302671
  0
ELLIPSE
  5
9C
330
17
100
AcDbEntity
  8
hidden
100
AcDbEllipse
 10
0.8346263385554806
 20
31.378747753797242
 30
0.0
 11
1.9999999999999998
 21
-3.464101615137755
 31
0.0
 40
0.5773502691896258
 41
-0.3710714768769918
 42
-0.0
  0
ELLIPSE
  5
9D
330
17
100
AcDbEntity
  8
hidden
100
AcDbEllipse
 10
-3.535533905932727
 20
18.371173070873766
 30
0.0
 11
3.9999999999999996
 21
-6.92820323027551
 31
0.0
 40
0.5773502691896258
 41
-6.283185307179586
 42
-3.9269908169872414
  0
ELLIPSE
  5
9E
330
17
100
AcDbEntity
  8
hidden
100
AcDbEllipse
 10
-3.535533905932727
 20
18.371173070873766
 30
0.0
 11
3.9999999999999996
 21
-6.92820323027551
 31
0.0
 40
0.5773502691896258
 41
-3.141592653589793
 42
-0.0
  0
ELLIPSE
  5
9F
330
17
100
AcDbEntity
  8
hidden
100
AcDbEllipse
 10
-3.535533905932727
 20
18.371173070873766
 30
0.0
 11
3.9999999999999996
 21
-6.92820323027551
 31
0.0
 40
0.5773502691896258
 41
-3.9269908169872414
 42
-3.141592653589793
  0
LINE
  5
A0
330
17
100
AcDbEntity
  8
hidden
100
AcDbLine
 10
-3.535533905932727
 20
24.903145718295573
 30
0.0
 11
-31.819805153394633
 21
8.573214099741048
 31
0.0
  0
LINE
  5
A1
330
17
100
AcDbEntity
  8
hidden
100
AcDbLine
 10
12.976761962286433
 20
-11.914174577600956
 30
0.0
 11
41.26103320974834
 21
4.415757040953569
 31
0.0
  0
LINE
  5
A2
330
17
100
AcDbEntity
  8
hidden
100
AcDbLine
 10
12.976761962286433
 20
-31.111160530262765
 30
0.0
 11
41.26103320974834
 21
-14.78122891170824
 31
0.0
  0
LINE
  5
A3
330
17
100
AcDbEntity
  8
hidden
100
AcDbLine
 10
-2.834626338555468
 20
-27.914646138659627
 30
0.0
 11
25.449644908906436
 21
-11.584714520105102
 31
0.0
  0
LINE
  5
A4
330
17
100
AcDbEntity
  8
hidden
100
AcDbLine
 10
-8.6066017177982
 20
-13.670308876734405
 30
0.0
 11
19.677669529663703
 21
2.6596227418201206
 31
0.0
  0
LINE
  5
A5
330
17
100
AcDbEntity
  8
hidden
100
AcDbLine
 10
27.819805153394654
 20
4.886961777956124
 30
0.0
 11
-0.46446609406725337
 21
-11.442969840598401
 31
0.0
  0
LINE
  5
A6
330
17
100
AcDbEntity
  8
hidden
100
AcDbLine
 10
35.819805153394654
 20
-8.969444682594897
 30
0.0
 11
7.535533905932747
 21
-25.299376301149422
 31
0.0
  0
LINE
  5
A7
330
17
100
AcDbEntity
  8
hidden
100
AcDbLine
 10
1.1653736614445425
 20
-3.7814736159740594
 30
0.0
 11
29.44964490890645
 21
12.548458002580466
 31
0.0
  0
LINE
  5
A8
330
17
100
AcDbEntity
  8
hidden
100
AcDbLine
 10
-41.26103320974832
 20
14.78122891170809
 30
0.0
 11
-12.976761962286416
 21
31.111160530262616
 31
0.0
  0
LINE
  5
A9
330
17
100
AcDbEntity
  8
hidden
100
AcDbLine
 10
-41.26103320974831
 20
-4.415757040953722
 30
0.0
 11
-12.976761962286409
 21
11.914174577600804
 31
0.0
  0
LINE
  5
AA
330
17
100
AcDbEntity
  8
hidden
100
AcDbLine
 10
-29.44964490890642
 20
-12.548458002580617
 30
0.0
 11
-1.165373661444514
 21
3.7814736159739084
 31
0.0
  0
LINE
  5
AB
330
17
100
AcDbEntity
  8
hidden
100
AcDbLine
 10
-9.30741374206665
 20
-8.055234073833367
 30
0.0
 11
6.4644660940672765
 21
1.050664995184988
 31
0.0
  0
LINE
  5
AC
330
17
100
AcDbEntity
  8
hidden
100
AcDbLine
 10
-19.67766952966368
 20
-2.6596227418202627
 30
0.0
 11
8.606601717798226
 21
13.670308876734262
 31
0.0
  0
LINE
  5
AD
330
17
100
AcDbEntity
  8
hidden
100
AcDbLine
 10
-7.535533905932725
 20
25.299376301149277
 30
0.0
 11
-35.81980515339463
 21
8.969444682594752
 31
0.0
  0
LINE
  5
AE
330
17
100
AcDbEntity
  8
hidden
100
AcDbLine
 10
0.4644660940672747
 20
11.442969840598256
 30
0.0
 11
-27.819805153394633
 21
-4.8869617779562695
 31
0.0
  0
LINE
  5
AF
330
17
100
AcDbEntity
  8
hidden
100
AcDbLine
 10
-25.44964490890642
 20
11.58471452010496
 30
0.0
 11
2.8346263385554824
 21
27.914646138659485
 31
0.0
  0
ENDSEC
  0
SECTION
  2
OBJECTS
  0
DICTIONARY
  5
A
330
0
100
AcDbDictionary
281
1
  3
ACAD_COLOR
350
B
  3
ACAD_GROUP
350
C
  3
ACAD_LAYOUT
350
D
  3
ACAD_MATERIAL
350
E
  3
ACAD_MLEADERSTYLE
350
F
  3
ACAD_MLINESTYLE
350
10
  3
ACAD_PLOTSETTINGS
350
11
  3
ACAD_PLOTSTYLENAME
350
12
  3
ACAD_SCALELIST
350
14
  3
ACAD_TABLESTYLE
350
15
  3
ACAD_VISUALSTYLE
350
16
  3
EZDXF_META
350
2D
  0
DICTIONARY
  5
B
330
A
100
AcDbDictionary
281
1
  0
DICTIONARY
  5
C
330
A
100
AcDbDictionary
281
1
  0
DICTIONARY
  5
D
330
A
100
AcDbDictionary
281
1
  3
Model
350
1A
  3
Layout1
350
1E
  0
DICTIONARY
  5
E
330
A
100
AcDbDictionary
281
1
  3
ByBlock
350
1F
  3
ByLayer
350
20
  3
Global
350
21
  0
DICTIONARY
  5
F
330
A
100
AcDbDictionary
281
1
  3
Standard
350
2C
  0
DICTIONARY
  5
10
330
A
100
AcDbDictionary
281
1
  3
Standard
350
22
  0
DICTIONARY
  5
11
330
A
100
AcDbDictionary
281
1
  0
ACDBDICTIONARYWDFLT
  5
12
330
A
100
AcDbDictionary
281
1
  3
Normal
350
13
100
AcDbDictionaryWithDefault
340
13
  0
ACDBPLACEHOLDER
  5
13
330
12
  0
DICTIONARY
  5
14
330
A
100
AcDbDictionary
281
1
  0
DICTIONARY
  5
15
330
A
100
AcDbDictionary
281
1
  0
DICTIONARY
  5
16
330
A
100
AcDbDictionary
281
1
  0
LAYOUT
  5
1A
330
D
100
AcDbPlotSettings
  1

  4
A3
  6

 40
7.5
 41
20.0
 42
7.5
 43
20.0
 44
420.0
 45
297.0
 46
0.0
 47
0.0
 48
0.0
 49
0.0
140
0.0
141
0.0
142
1.0
143
1.0
 70
1024
 72
1
 73
0
 74
5
  7

 75
16
 76
0
 77
2
 78
300
147
1.0
148
0.0
149
0.0
100
AcDbLayout
  1
Model
 70
1
 71
0
 10
0.0
 20
0.0
 11
420.0
 21
297.0
 12
0.0
 22
0.0
 32
0.0
 14
1e+20
 24
1e+20
 34
1e+20
 15
-1e+20
 25
-1e+20
 35
-1e+20
146
0.0
 13
0.0
 23
0.0
 33
0.0
 16
1.0
 26
0.0
 36
0.0
 17
0.0
 27
1.0
 37
0.0
 76
1
330
17
  0
LAYOUT
  5
1E
330
D
100
AcDbPlotSettings
  1

  4
A3
  6

 40
7.5
 41
20.0
 42
7.5
 43
20.0
 44
420.0
 45
297.0
 46
0.0
 47
0.0
 48
0.0
 49
0.0
140
0.0
141
0.0
142
1.0
143
1.0
 70
0
 72
1
 73
0
 74
5
  7

 75
16
 76
0
 77
2
 78
300
147
1.0
148
0.0
149
0.0
100
AcDbLayout
  1
Layout1
 70
1
 71
1
 10
0.0
 20
0.0
 11
420.0
 21
297.0
 12
0.0
 22
0.0
 32
0.0
 14
1e+20
 24
1e+20
 34
1e+20
 15
-1e+20
 25
-1e+20
 35
-1e+20
146
0.0
 13
0.0
 23
0.0
 33
0.0
 16
1.0
 26
0.0
 36
0.0
 17
0.0
 27
1.0
 37
0.0
 76
1
330
1B
  0
MATERIAL
  5
1F
102
{ACAD_REACTORS
330
E
102
}
330
E
100
AcDbMaterial
  1
ByBlock
  2

 70
0
 40
1.0
 71
1
 41
1.0
 91
-1023410177
 42
1.0
 72
1
  3

 73
1
 74
1
 75
1
 44
0.5
 73
0
 45
1.0
 46
1.0
 77
1
  4

 78
1
 79
1
170
1
 48
1.0
171
1
  6

172
1
173
1
174
1
140
1.0
141
1.0
175
1
  7

176
1
177
1
178
1
143
1.0
179
1
  8

270
1
271
1
272
1
145
1.0
146
1.0
273
1
  9

274
1
275
1
276
1
 42
1.0
 72
1
  3

 73
1
 74
1
 75
1
 94
63
  0
MATERIAL
  5
20
102
{ACAD_REACTORS
330
E
102
}
330
E
100
AcDbMaterial
  1
ByLayer
  2

 70
0
 40
1.0
 71
1
 41
1.0
 91
-1023410177
 42
1.0
 72
1
  3

 73
1
 74
1
 75
1
 44
0.5
 73
0
 45
1.0
 46
1.0
 77
1
  4

 78
1
 79
1
170
1
 48
1.0
171
1
  6

172
1
173
1
174
1
140
1.0
141
1.0
175
1
  7

176
1
177
1
178
1
143
1.0
179
1
  8

270
1
271
1
272
1
145
1.0
146
1.0
273
1
  9

274
1
275
1
276
1
 42
1.0
 72
1
  3

 73
1
 74
1
 75
1
 94
63
  0
MATERIAL
  5
21
102
{ACAD_REACTORS
330
E
102
}
330
E
100
AcDbMaterial
  1
Global
  2

 70
0
 40
1.0
 71
1
 41
1.0
 91
-1023410177
 42
1.0
 72
1
  3

 73
1
 74
1
 75
1
 44
0.5
 73
0
 45
1.0
 46
1.0
 77
1
  4

 78
1
 79
1
170
1
 48
1.0
171
1
  6

172
1
173
1
174
1
140
1.0
141
1.0
175
1
  7

176
1
177
1
178
1
143
1.0
179
1
  8

270
1
271
1
272
1
145
1.0
146
1.0
273
1
  9

274
1
275
1
276
1
 42
1.0
 72
1
  3

 73
1
 74
1
 75
1
 94
63
  0
MLINESTYLE
  5
22
102
{ACAD_REACTORS
330
10
102
}
330
10
100
AcDbMlineStyle
  2
Standard
 70
0
  3

 62
256
 51
90.0
 52
90.0
 71
2
 49
0.5
 62
256
  6
BYLAYER
 49
-0.5
 62
256
  6
BYLAYER
  0
MLEADERSTYLE
  5
2C
102
{ACAD_REACTORS
330
F
102
}
330
F
100
AcDbMLeaderStyle
179
2
170
2
171
1
172
0
 90
2
 40
0.0
 41
0.0
173
1
 91
-1056964608
 92
-2
290
1
 42
2.0
291
1
 43
8.0
  3
Standard
 44
4.0
300

342
29
174
1
175
1
176
0
178
1
 93
-1056964608
 45
4.0
292
0
297
0
 46
4.0
 94
-1056964608
 47
1.0
 49
1.0
140
1.0
294
1
141
0.0
177
0
142
1.0
295
0
296
0
143
3.75
271
0
272
9
273
9
  0
DICTIONARY
  5
2D
330
A
100
AcDbDictionary
280
1
281
1
  3
CREATED_BY_EZDXF
350
2E
  3
WRITTEN_BY_EZDXF
350
B3
  0
DICTIONARYVAR
  5
2E
330
2D
100
DictionaryVariables
280
0
  1
1.4.3 @ 2026-05-07T18:42:14.844011+00:00
  0
DICTIONARYVAR
  5
B3
330
2D
100
DictionaryVariables
280
0
  1
1.4.3 @ 2026-05-07T18:42:14.863556+00:00
  0
ENDSEC
  0
EOF
